<svg id="Слой_1" data-name="Слой 1" xmlns="http://www.w3.org/2000/svg" xmlns:xlink="http://www.w3.org/1999/xlink" viewBox="0 0 353.43 493.02"><defs><style>.cls-1{fill:#f57d51;}.cls-10,.cls-12,.cls-2,.cls-3,.cls-6,.cls-8,.cls-9{fill:none;}.cls-2,.cls-3{stroke:#ed4963;}.cls-10,.cls-12,.cls-2,.cls-3,.cls-4,.cls-5,.cls-6,.cls-8,.cls-9{stroke-miterlimit:10;}.cls-2{stroke-width:13.46px;}.cls-3{stroke-width:11.77px;}.cls-4,.cls-7{fill:#f4decc;}.cls-10,.cls-12,.cls-4,.cls-6{stroke:#000;}.cls-4,.cls-6,.cls-9{stroke-width:14.15px;}.cls-5{stroke:#696969;stroke-width:12.98px;fill:url(#Безымянный_градиент);}.cls-8,.cls-9{stroke:#e0cab8;}.cls-12,.cls-8{stroke-width:12.86px;}.cls-10{stroke-width:12.17px;}.cls-11{fill:url(#Безымянный_градиент_2);}.cls-13{fill:#fff;}</style><linearGradient id="Безымянный_градиент" x1="263.58" y1="631.46" x2="281.64" y2="636.31" gradientTransform="translate(0 -591.06)" gradientUnits="userSpaceOnUse"><stop offset="0" stop-color="#737373"/><stop offset="1" stop-color="#737373"/></linearGradient><linearGradient id="Безымянный_градиент_2" x1="102.87" y1="630.46" x2="275.12" y2="676.62" xlink:href="#Безымянный_градиент"/></defs><rect class="cls-1" x="68.8" y="322.09" width="215.19" height="160.2"/><path class="cls-1" d="M280.74,376.4l.41,107.92L65.59,486V377.73m215.15-1.33,61.94,1.33.37-74.3a49,49,0,0,0-48.76-49.24H50.51A46.71,46.71,0,0,0,3.86,300.92v76.83H65.59Z"/><polyline class="cls-2" points="277.32 316.35 277.77 480.05 76.03 480.05"/><path class="cls-3" d="M337.57,370.36l.3-63.24C338,284,321.07,254,299,254"/><circle class="cls-4" cx="82.95" cy="124.1" r="15.43"/><circle class="cls-4" cx="268.77" cy="123.45" r="15.43"/><path class="cls-5" d="M253.71,77.16a25.6,25.6,0,0,0,25.35-25.81V5.14"/><line class="cls-6" x1="145.73" y1="223.49" x2="207.46" y2="223.49"/><path class="cls-7" d="M100.31,65.59H258.48v72.09a86.08,86.08,0,0,1-86.08,86.08h0a72.1,72.1,0,0,1-72.09-72.09h0V65.59Z"/><path class="cls-8" d="M248.2,70.73v69.56c-3.86,44.89-21.87,60.32-52.73,80.9"/><path class="cls-7" d="M208.33,218.62V270.7a30.86,30.86,0,0,1-30.86,30.86h0a30.86,30.86,0,0,1-30.87-30.85h0V219.9"/><path class="cls-9" d="M153,223.35s13.63,16.47,51.33,0"/><path class="cls-6" d="M207.69,218.62V270.7a30.86,30.86,0,0,1-30.86,30.86h0A30.86,30.86,0,0,1,146,270.7V219.9"/><path class="cls-10" d="M100.31,65.59H258.48v72.09a86.08,86.08,0,0,1-86.08,86.08h0a72.1,72.1,0,0,1-72.09-72.09h0V65.59Z"/><rect class="cls-7" x="281.63" y="378.08" width="61.73" height="108.02"/><polyline class="cls-6" points="345.97 377.53 346.33 485.74 284.04 485.74"/><rect class="cls-7" x="7.07" y="377.44" width="61.73" height="108.02"/><path class="cls-6" d="M283.56,316.35,284,485.74H68.8V317.64m214.93,59.89h62.2l.36-74.31A49,49,0,0,0,297.51,254H231.22m-92.1,0H53.79A46.74,46.74,0,0,0,7.07,300.7v76.83H68.8"/><line class="cls-6" x1="7.07" y1="408.78" x2="7.07" y2="377.53"/><polyline class="cls-6" points="7.07 424.7 7.07 485.74 65.52 485.95"/><path class="cls-11" d="M128.6,78.45h129A25.38,25.38,0,0,0,282.92,53.1V7.72H155c-11.72,0-25.07,7.71-23.78,24.43,0,0-32.15,1.29-32.15,24.43v61.73Z"/><path class="cls-12" d="M129.88,77.16h129A25.35,25.35,0,0,0,284.2,51.81V6.43h-128c-11.71,0-25.06,7.72-23.77,24.43,0,0-32.15,1.29-32.15,24.44V117Z"/><rect class="cls-13" x="138.24" y="425.02" width="15.43" height="15.43"/><rect class="cls-13" x="168.46" y="424.38" width="15.43" height="15.43"/><rect class="cls-13" x="200.61" y="424.38" width="15.43" height="15.43"/></svg>